# xmcd
#
# Track frame offsets:
#	150
#	11323
#	23398
#	35783
#	47170
#	59510
#	74598
#	86415
#	97885
#	109933
#
# Disc length: 1668 seconds
#
# Revision: 0
# Processed by: cddbd v1.5.1PL0 Copyright (c) Steve Scherf et al.
# Submitted via: audiograbber 1.83.01
#
DISCID=7a06820a
DTITLE=Various Artist - Country Classics
DYEAR=1900
DGENRE=Country
TTITLE0=Conway Twitty - Hello Darlin'
TTITLE1=Merle Haggard - Okie From Muskogee
TTITLE2=Freddy Fender - Wasted Days and Wasted Nights
TTITLE3=Donna Fargo - Happiest Girl In The Whole USA
TTITLE4=Johnny Paycheck - Take This Job And Shove It
TTITLE5=Jeannie C. Riley - Harper Valley P.T.A.
TTITLE6=Sammi Smith - Help Me Make It Through The Night
TTITLE7=Kitty Wells - It Wasn't God Who Made Honky Tonk Angels
TTITLE8=Skeeter Davis - End Of The World
TTITLE9=Melba Montgomery - No Charge
EXTD=
EXTT0=
EXTT1=
EXTT2=
EXTT3=
EXTT4=
EXTT5=
EXTT6=
EXTT7=
EXTT8=
EXTT9=
PLAYORDER=
